{"title":"The Change-Up (2011) BRRip NL subs DutchReleaseTeam","uid":6778827,"size":738017157,"categoryP":"video","categoryS":"movies","magnet":"?xt=urn:btih:6225a785c754ec3a723d2cdd20a073d726adf951&amp;dn=The+Change-Up+%282011%29+BRRip+NL+subs+DutchReleaseTeam&amp;tr=udp%3A%2F%2Ftracker.openbittorrent.com%3A80&amp;tr=udp%3A%2F%2Fopen.demonii.com%3A1337&amp;tr=udp%3A%2F%2Ftracker.coppersurfer.tk%3A6969&amp;tr=udp%3A%2F%2Fexodus.desync.com%3A6969","seeders":8,"leechers":2,"uploader":"Koedje","files":-1,"time":1319823937,"description":" &lt;a href=&quot;http://img195.imageshack.us/img195/2567/changeup.jpg&quot; rel=&quot;nofollow&quot; target=&quot;_NEW&quot;&gt;http://img195.imageshack.us/img195/2567/changeup.jpg&lt;/a&gt;\n\n\nVerenigde Staten\nKomedie\n112 minuten\n\ngeregisseerd door David Dobkin\nmet Olivia Wilde, Ryan Reynolds en Jason Bateman\n\nMitch en Dave groeiden samen op en waren de beste vrienden. Maar als de jaren voorbij gaan groeiden ze langzaam uit elkaar. Terwijl Dave een overwerkte advocaat is, echtgenoot en vader van drie kinderen, is Mitch single gebleven. In Mitch zijn ogen heeft Dave het allemaal: een knappe vrouw, kinderen die hem lief hebben en een goede baan bij een prestigieus advocatenkantoor. Dave droomt echter van het stressloze leven van Mitch zonder verplichtingen. Na een avondje stappen staat de wereld van beide echter op hun kop wanneer ze wakker worden in elkaars lichaam.\n\n\nVertaald door Simply Release Toppers\nTokke &amp; Suurtje \n\n\n\n\n\nScreenshots:\n &lt;a href=&quot;\nhttp://img405.imageshack.us/img405/8869/screenshot1mfq.jpg&quot; rel=&quot;nofollow&quot; target=&quot;_NEW&quot;&gt;\nhttp://img405.imageshack.us/img405/8869/screenshot1mfq.jpg&lt;/a&gt;\n &lt;a href=&quot;\nhttp://img46.imageshack.us/img46/7953/screenshot2hy.jpg&quot; rel=&quot;nofollow&quot; target=&quot;_NEW&quot;&gt;\nhttp://img46.imageshack.us/img46/7953/screenshot2hy.jpg&lt;/a&gt;\n &lt;a href=&quot;\nhttp://img442.imageshack.us/img442/2043/screenshot3qv.jpg&quot; rel=&quot;nofollow&quot; target=&quot;_NEW&quot;&gt;\nhttp://img442.imageshack.us/img442/2043/screenshot3qv.jpg&lt;/a&gt;\n &lt;a href=&quot;\nhttp://img510.imageshack.us/img510/1218/screenshot4d.jpg&quot; rel=&quot;nofollow&quot; target=&quot;_NEW&quot;&gt;\nhttp://img510.imageshack.us/img510/1218/screenshot4d.jpg&lt;/a&gt;\n\n\n\n\n\nINFO;\n\nVideo\nID                                       : 0\nFormat                                   : MPEG-4 Visual\nFormat profile                           : Advanced Simple@L5\nFormat settings, BVOP                    : 1\nFormat settings, QPel                    : No\nFormat settings, GMC                     : No warppoints\nFormat settings, Matrix                  : Custom\nCodec ID                                 : XVID\nCodec ID/Hint                            : XviD\nDuration                                 : 1h 58mn\nBit rate                                 : 704 Kbps\nWidth                                    : 608 pixels\nHeight                                   : 256 pixels\nDisplay aspect ratio                     : 2.40:1\nFrame rate                               : 23.976 fps\nColor space                              : YUV\nChroma subsampling                       : 4:2:0\nBit depth                                : 8 bits\nScan type                                : Progressive\nCompression mode                         : Lossy\nBits/(Pixel*Frame)                       : 0.189\nStream size                              : 595 MiB (85%)\nWriting library                          : XviD 64\n\nAudio\nID                                       : 1\nFormat                                   : MPEG Audio\nFormat version                           : Version 1\nFormat profile                           : Layer 3\nMode                                     : Joint stereo\nMode extension                           : MS Stereo\nCodec ID                                 : 55\nCodec ID/Hint                            : MP3\nDuration                                 : 1h 58mn\nBit rate mode                            : Variable\nBit rate                                 : 111 Kbps\nNominal bit rate                         : 128 Kbps\nChannel(s)                               : 2 channels\nSampling rate                            : 48.0 KHz\nCompression mode                         : Lossy\nStream size                              : 94.2 MiB (13%)\nAlignment                                : Aligned on interleaves\nInterleave, duration                     : 24 ms (0.58 video frame)\nInterleave, preload duration             : 165 ms\n\n\n\n &lt;a href=&quot;\nhttp://www.imdb.com/title/tt1488555/&quot; rel=&quot;nofollow&quot; target=&quot;_NEW&quot;&gt;\nhttp://www.imdb.com/title/tt1488555/&lt;/a&gt; &lt;a href=&quot;\nhttp://www.moviemeter.nl/film/73578&quot; rel=&quot;nofollow&quot; target=&quot;_NEW&quot;&gt;\nhttp://www.moviemeter.nl/film/73578&lt;/a&gt;\n\n\n\nDeze film wordt u aangeboden door het DutchReleaseTeam.\nVoor de reviews van de nieuwste films, muziek, series, games etc\nga dan eens naar http://www.hetmultimediacafe.be\n\nDutchReleaseteam = Hardcoded Dutch Subs","torrent":{"xt":"urn:btih:6225a785c754ec3a723d2cdd20a073d726adf951","amp;dn":"The+Change-Up+%282011%29+BRRip+NL+subs+DutchReleaseTeam","amp;tr":["udp%3A%2F%2Ftracker.openbittorrent.com%3A80","udp%3A%2F%2Fopen.demonii.com%3A1337","udp%3A%2F%2Ftracker.coppersurfer.tk%3A6969","udp%3A%2F%2Fexodus.desync.com%3A6969"],"infoHash":"6225a785c754ec3a723d2cdd20a073d726adf951","infoHashBuffer":{"type":"Buffer","data":[98,37,167,133,199,84,236,58,114,61,44,221,32,160,115,215,38,173,249,81]},"announce":[],"urlList":[]}}